<svg width="32" height="32" viewBox="0 0 32 32" fill="none" xmlns="http://www.w3.org/2000/svg">
<path d="M3 27H21" stroke="black" stroke-width="2" stroke-linecap="round" stroke-linejoin="round"/>
<path d="M2.11586 17.5461L6.82778 21.9635C7.45558 22.5521 8.25645 22.9225 9.11147 23.0198C9.9665 23.117 10.8301 22.9359 11.574 22.5034L30.5 11.5L28.1701 8.6523C27.5656 7.91354 26.7169 7.41528 25.7772 7.24751C24.8376 7.07975 23.8689 7.25355 23.0461 7.73751L17.5 11L9.99997 8.49997L7.9376 9.38385C7.7833 9.44997 7.64813 9.55388 7.54456 9.68598C7.44098 9.81809 7.37233 9.97414 7.34493 10.1398C7.31753 10.3054 7.33226 10.4752 7.38777 10.6337C7.44328 10.7921 7.53777 10.934 7.66255 11.0463L11.5 14.5L7.99997 16.5L4.49997 15L2.40588 15.8974C2.25317 15.9629 2.11917 16.0654 2.01599 16.1956C1.91282 16.3258 1.84371 16.4797 1.81493 16.6433C1.78614 16.807 1.79858 16.9752 1.85112 17.1328C1.90367 17.2904 1.99465 17.4325 2.11586 17.5461V17.5461Z" stroke="black" stroke-width="2" stroke-linecap="round" stroke-linejoin="round"/>
</svg>
