<svg width="32" height="32" viewBox="0 0 32 32" fill="none" xmlns="http://www.w3.org/2000/svg">
<path d="M8.00004 27C7.86872 27 7.73868 26.9742 7.61736 26.9239C7.49603 26.8737 7.38579 26.8 7.29293 26.7071C7.20007 26.6143 7.12641 26.504 7.07616 26.3827C7.0259 26.2614 7.00004 26.1313 7.00004 26L7.00011 20.6632C6.46664 20.9158 5.87793 21.0295 5.28875 20.9935C4.69956 20.9576 4.12905 20.7732 3.63026 20.4575C3.13148 20.1419 2.72063 19.7052 2.43594 19.1881C2.15124 18.671 2.00195 18.0903 2.00195 17.5C2.00195 16.9098 2.15124 16.3291 2.43594 15.812C2.72063 15.2949 3.13148 14.8582 3.63026 14.5425C4.12905 14.2269 4.69956 14.0425 5.28875 14.0065C5.87793 13.9706 6.46664 14.0842 7.00011 14.3369L7.00004 9.00004C7.00004 8.86872 7.02591 8.73868 7.07616 8.61735C7.12642 8.49602 7.20008 8.38578 7.29294 8.29292C7.3858 8.20006 7.49604 8.1264 7.61737 8.07615C7.7387 8.02589 7.86873 8.00003 8.00006 8.00003L13.8369 8.00009C13.5842 7.46663 13.4706 6.87792 13.5065 6.28874C13.5425 5.69956 13.7269 5.12904 14.0425 4.63026C14.3582 4.13147 14.7949 3.72063 15.312 3.43594C15.8291 3.15124 16.4097 3.00195 17 3.00195C17.5903 3.00195 18.171 3.15124 18.6881 3.43594C19.2052 3.72063 19.6418 4.13147 19.9575 4.63026C20.2732 5.12904 20.4576 5.69956 20.4935 6.28874C20.5295 6.87792 20.4158 7.46663 20.1632 8.00009L26 8.00003C26.2652 8.00003 26.5196 8.10538 26.7071 8.29291C26.8946 8.48045 27 8.7348 27 9.00002L27.0001 14.3369C26.4666 14.0842 25.8779 13.9706 25.2887 14.0065C24.6995 14.0425 24.129 14.2269 23.6302 14.5425C23.1314 14.8582 22.7206 15.2949 22.4359 15.812C22.1512 16.3291 22.0019 16.9097 22.0019 17.5C22.0019 18.0903 22.1512 18.671 22.4359 19.1881C22.7206 19.7052 23.1314 20.1419 23.6302 20.4575C24.129 20.7732 24.6995 20.9576 25.2887 20.9935C25.8779 21.0295 26.4666 20.9158 27.0001 20.6632L27 26C27 26.2653 26.8946 26.5196 26.7071 26.7071C26.5196 26.8947 26.2652 27 26 27L8.00004 27Z" stroke="black" stroke-width="2" stroke-linecap="round" stroke-linejoin="round"/>
</svg>
