<?xml version="1.0" encoding="utf-8"?>
<!-- Generator: Adobe Illustrator 22.1.0, SVG Export Plug-In . SVG Version: 6.00 Build 0)  -->
<svg version="1.1" id="Layer_1" xmlns="http://www.w3.org/2000/svg" xmlns:xlink="http://www.w3.org/1999/xlink" x="0px" y="0px"
	 width="244px" height="100px" viewBox="0 0 244 100" enable-background="new 0 0 244 100" xml:space="preserve">
<g>
	<g>
		<path fill="#FFFFFF" d="M125.5,15.2c3.2,0,5.6-2.6,5.6-5.6c0-3.2-2.6-5.6-5.6-5.6c-3.2,0-5.6,2.6-5.6,5.6S122.5,15.2,125.5,15.2
			 M148.4,65.2L148.4,65.2c2.1,0,4.1-0.7,5.6-1.3c1.6-0.7,2.6-1.6,3-2.3c0.4-0.4,0.7-1.1,0.7-1.7c0-0.4-0.2-0.9-0.4-1.6
			c-0.7-1.1-1.7-1.7-2.8-1.7c-0.2,0-0.4,0-0.7,0c-0.7,0.2-0.9,0.4-1.3,0.4c-0.4,0.2-0.9,0.2-1.6,0.2c-1.3,0-1.9-0.4-2.3-0.9
			c0,0-0.9-1.1-1.1-2.1c-0.4-1.9-0.4-4.6-0.4-6.5c0-0.7,0-39.1,0-40.1c0-1.6-0.7-2.6-1.7-3.2c-1.1-0.7-2.3-1.1-3.7-1.1
			s-2.6,0.2-3.7,1.1c-1.1,0.7-1.7,1.7-1.7,3.2v45.6c0,2.6,0.7,5.4,2.6,7.9C140.8,63.5,143.8,65.2,148.4,65.2 M170.2,27.9L170.2,27.9
			c2.6-3.9,5.6-4.4,6.9-4.4l0,0c2.1,0,4.4,1.6,4.9,4.7c0,0.7,0.2,1.1,0.2,1.7c0,2.3-0.9,4.4-2.1,5.8c-3.2,3.7-7.8,4.6-12.5,5.1
			c0-0.4,0-0.9,0-1.3C167.6,35.7,168.2,30.9,170.2,27.9 M163.3,59.9c3.5,3.5,8.4,5.4,14.4,5.4l0,0c3.2,0,6.3-0.7,8.6-1.6
			c1.1-0.4,2.1-1.1,2.8-1.7c0.7-0.7,1.1-1.6,1.1-2.3c0-0.2,0-0.2,0-0.4c-0.2-1.6-1.6-2.6-3-2.6c-0.4,0-0.7,0-1.1,0.2
			c-1.7,0.7-3.5,0.9-5.6,0.9c-0.7,0-1.3,0-1.9,0c-4.6-0.4-7.1-3-8.6-5.8c-0.9-1.3-1.3-2.8-1.6-3.9c-0.2-0.4-0.2-0.9-0.2-1.1
			c6-0.2,11.4-1.1,16.4-3.7c2.6-1.6,5.6-3.7,7.4-6.9c1.1-2.1,1.6-4.6,1.6-6.7c0-0.7,0-1.3-0.2-1.9c-1.1-5.8-6.5-10.4-14.9-10.4
			c-5.8,0-13.4,2.3-17.9,9.5c-1.7,2.8-4.1,7.9-4.1,14.9c0,1.6,0.2,3.2,0.4,4.9C157.4,51.9,159.6,56.6,163.3,59.9 M59,63.8
			c1.1,0.7,2.3,1.1,3.7,1.1c1.3,0,2.6-0.2,3.7-1.1c1.1-0.7,1.7-1.7,1.7-3.2c0,0,0-24.8,0-25l0,0c0-1.9,0.7-4.6,1.7-6.5
			c1.1-1.9,2.8-3.5,5.4-3.5c1.3,0,1.9,0.4,2.6,1.1c1.1,0.9,1.6,2.3,1.9,3.9c0.2,1.6,0.4,3,0.4,3.9c0,0.2,0,25.3,0,26.1
			c0,1.6,0.9,2.6,1.9,3.2c1.1,0.7,2.3,1.1,3.7,1.1s2.8-0.2,3.9-1.1c1.1-0.7,1.9-1.7,1.9-3.2v-25c0-1.9,0.7-4.6,1.7-6.5
			c1.1-1.9,2.8-3.5,5.4-3.5c1.3,0,1.9,0.4,2.6,1.1c1.1,0.9,1.6,2.3,1.9,3.9c0.2,1.6,0.4,3,0.4,3.9c0,0.2,0,24.4,0,26.1
			c0,1.6,0.9,2.6,1.9,3.2c1.1,0.7,2.3,1.1,3.7,1.1c1.3,0,2.8-0.2,3.9-1.1c1.1-0.7,1.9-1.7,1.9-3.2V36.1c0-6.3-1.3-10.8-3.5-14.1
			c-2.3-3.2-5.6-4.7-9.7-4.7c-3.9,0-6.7,1.9-8.8,3.9c-1.6,1.6-2.3,3-3,4.4C89,23,87.6,21,85.8,19.8c-2.1-1.7-4.6-2.3-7.6-2.3
			c-4.9,0-8.2,3-10.4,5.8v-0.2c0-1.6-0.7-2.6-1.7-3.2c-1.1-0.7-2.3-1.1-3.7-1.1c-1.3,0-2.6,0.2-3.7,1.1c-1.2,0.6-1.8,1.6-1.8,3.1
			c0,0,0,36.7,0,37.5C57.1,61.8,57.9,62.9,59,63.8 M129.2,19.5c-1.1-0.7-2.3-1.1-3.7-1.1c-1.3,0-2.6,0.2-3.7,1.1
			c-1.1,0.7-1.7,1.7-1.7,3.2c0,0,0,36.7,0,37.5c0,1.6,0.7,2.6,1.7,3.2c1.1,0.7,2.3,1.1,3.7,1.1c1.3,0,2.6-0.2,3.7-1.1
			c1.1-0.7,1.7-1.7,1.7-3.2c0,0,0-36.7,0-37.5C130.8,21.4,130.2,20.4,129.2,19.5 M240.5,39c0-0.2-0.2-0.4-0.4-0.7
			c-0.2,0-0.4,0-0.7,0.2c0,0-0.2,0.2-0.4,0.4c-0.2,0.2-0.9,0.9-1.6,1.6c-1.3,1.3-3.2,3-5.6,4.9c-1.7,1.6-3.9,3.2-6.3,4.9
			c0-0.7-0.2-1.3-0.2-1.9c-0.7-2.6-2.1-4.6-4.1-6.3c-2.8-2.3-6.5-3.9-9.3-5.6c-1.6-0.9-2.8-1.7-3.7-2.8s-1.6-2.1-1.7-3.5
			c0-0.2,0-0.4,0-0.9c0-1.3,0.4-2.8,1.7-3.9c0.7-0.7,2.3-1.7,4.9-1.7c3.2,0,5.8,1.3,7.4,1.3c1.7,0,3.2-0.9,3.7-2.6
			c0-0.2,0.2-0.7,0.2-1.1c0-1.9-1.6-3.7-3.7-4.1c0,0-1.9-0.7-5.8-0.7c-5.6,0-10.2,1.3-13.4,3.9c-3.2,2.3-4.9,5.8-4.9,9.9
			c0,1.1,0.2,2.1,0.4,3.5c1.3,4.9,6,7.6,10.6,9.9c2.1,1.1,4.6,2.3,6,3.5c1.7,1.3,2.8,2.6,3,3.9c0,0.2,0,0.4,0,0.7
			c0,1.3-0.7,2.6-1.7,3.7c-1.1,0.9-3,1.7-5.6,1.7h-0.2c-2.8,0-5.1-0.9-6.9-1.6c-0.7-0.4-1.6-0.4-2.1-0.4c-1.7,0-3,1.1-3.2,2.8
			c0,0.2,0,0.4,0,0.4c0,1.3,0.7,2.1,1.6,3c1.3,1.1,3.2,1.9,4.9,2.3c-19.7,9.9-47,18.8-81.6,18.8l0,0l0,0c-35,0-62.4-9.1-82.2-19
			c4.1-0.9,7.4-2.3,9.7-4.6c3.5-3.2,5.1-7.4,5.1-11.8c0-1.1,0-1.9-0.2-3c-0.7-3.5-2.3-6-4.7-8.2c-3.7-3.2-8.4-5.6-12.3-7.9
			c-1.9-1.1-3.9-2.3-5.1-3.7s-2.1-2.6-2.3-4.1c0-0.4,0-0.9,0-1.3c0-1.9,0.7-3.9,2.3-5.4c1.6-1.6,4.1-2.6,7.8-2.6
			c1.9,0,4.4,0.4,6.9,1.1c0.9,0.2,1.6,0.4,2.1,0.4c1.9,0,3.2-1.1,3.9-2.3C53,9.7,53,9,53,8.5c0-1.3-0.7-2.3-1.6-3s-2.1-1.3-3.5-1.6
			C45.3,3.5,42.8,3,39.7,3l0,0c-7.6,0-13.2,2.1-16.9,5.4c-3.7,3.3-5.2,7.6-5.2,11.7c0,0.9,0,1.7,0.2,2.6c1.1,5.8,6,9.7,11.1,12.7
			c4.9,3,10.2,5.6,12.1,8.2c1.1,1.6,1.6,3.2,1.6,4.9S41.9,52,41,53.1c-1.9,2.3-5.4,3.9-9.3,3.9c-2.3,0-4.9-0.7-7.1-1.9
			c-0.2,0-0.4-0.2-0.4-0.2c-5.4-3.5-9.9-6.9-13.2-9.7c-2.6-2.1-4.6-3.9-5.6-4.9c-0.7-0.7-1.1-1.1-1.6-1.6c-0.2-0.2-0.4-0.4-0.4-0.4
			c-0.2-0.2-0.4-0.2-0.7-0.2c-0.2,0-0.4,0.2-0.4,0.7C2,39.5,2,40.8,2,42.1v0.2l0,0c0,3.7,1.3,6.5,4.6,9.5
			C7.5,52.7,51.5,97.4,122,97.4l0,0l0,0c70.6,0,114.6-44.7,115.4-45.6c3.2-3,4.6-5.8,4.6-9.5l0,0v-0.1C240.7,41.1,240.7,40,240.5,39
			"/>
	</g>
</g>
</svg>
